<!-- Generator: Adobe Illustrator 28.2.0, SVG Export Plug-In . SVG Version: 6.00 Build 0)  -->
<svg version="1.1" id="Layer_1" xmlns="http://www.w3.org/2000/svg" xmlns:xlink="http://www.w3.org/1999/xlink" x="0px" y="0px" viewBox="150 500 600 60" style="enable-background:new 0 0 741.29 726.37;" xml:space="preserve" width="500" height="200">
<style type="text/css">
	.st0{fill:#0A1912;}
	.st1{fill:none;stroke:#33845B;stroke-width:13;stroke-miterlimit:10;}
	.st2{fill:none;stroke:#33845B;stroke-width:4;stroke-miterlimit:10;}
	.st3{fill:none;stroke:#33845B;stroke-width:4;stroke-linecap:round;stroke-miterlimit:10;}
	.st4{fill:#33845B;}
	.st5{fill:#FFFEFF;stroke:#33845B;stroke-width:4;stroke-miterlimit:10;}
	.st6{fill:#FFFEFF;}
	.st7{fill:#2A845C;}
	.st8{fill:none;}
	.st9{font-family:'Montserrat-Regular';}
	.st10{font-size:9px;}
	.st11{fill:#FFFFFF;}
	.st12{fill:none;stroke:#0A1912;stroke-miterlimit:10;}
	.st13{font-size:14px;}
	.st14{fill:#F15B23;stroke:#0A1912;stroke-miterlimit:10;}
	.st15{font-family:'MyriadPro-Regular';}
	.st16{font-size:12px;}
	.st17{fill:none;stroke:#0A1912;stroke-width:13;stroke-miterlimit:10;}
	.st18{fill:none;stroke:#0A1912;stroke-width:4;stroke-miterlimit:10;}
	.st19{fill:none;stroke:#0A1912;stroke-width:4;stroke-linecap:round;stroke-miterlimit:10;}
</style>

<g>
	<path class="st0" d="M264.04,572.54c-20.3,0-35.3-16-35.3-37.1c0-21.4,15-35.6,35.3-35.6h39.4v12.7h-39.4c-13,0-22.6,9.7-22.6,23.5   c0,13.7,9.5,23.8,22.6,23.8h39.4v12.7H264.04z" />
	<path class="st0" d="M381.24,572.54l-18.4-20.2h-27.2v-11.2h30.3c9.1,0,13.9-5.2,13.9-14.6s-5.2-14-13.9-14h-39.6v60h-12.6v-72.71   h52.2c16.6,0,26.4,10.3,26.4,26.5c0,12-5.6,20.5-15,24.1l21.9,22.1H381.24z" />
	<path class="st0" d="M430.54,572.54v-27.6l-38.6-45.1h17.1l28.3,33.5l28.4-33.5h16.2l-38.7,45.1v27.6H430.54z" />
	<path class="st0" d="M511.44,552.34v-12.3h29.2c8.9,0,14.2-5.6,14.2-13.8c0-8.4-5.3-13.7-14.2-13.7h-38.5v60h-12.6v-72.71h51.1   c16.8,0,26.6,10.1,26.6,26c0,15.7-9.8,26.5-26.6,26.5H511.44z" />
	<path class="st0" d="M599.54,572.54v-60h-27.6v-12.7h67.9v12.7h-27.6v60H599.54z" />
	<path class="st0" d="M710.34,572.54l-10.9-18.3h-34.4l6-10.3h22.3l-16.2-27.2l-33,55.8h-14.5l41.8-69.6c1.5-2.5,3.4-4.1,6.2-4.1   c2.8,0,4.6,1.6,6.1,4.1l41.9,69.6H710.34z" />
</g>
</svg>